<svg xmlns="http://www.w3.org/2000/svg" width="27.301" height="26.973" viewBox="0 0 27.301 26.973">
  <g id="Group_30" data-name="Group 30" transform="translate(-240.36 -61.824)">
    <g id="Group_28" data-name="Group 28" transform="translate(241.36 71.077)">
      <line id="Line_14" data-name="Line 14" x2="2.675" transform="translate(7.357 16.719)" fill="none" stroke="#0e4290" stroke-linecap="round" stroke-linejoin="round" stroke-width="2"/>
      <path id="Path_276" data-name="Path 276" d="M14.207,7.1a5.35,5.35,0,1,0-10.7,0v4.681A2.006,2.006,0,0,1,1.5,13.788H16.213a2.006,2.006,0,0,1-2.006-2.006Z" transform="translate(-0.162 -0.412)" fill="none" stroke="#0e4290" stroke-linecap="round" stroke-linejoin="round" stroke-width="2"/>
      <path id="Path_277" data-name="Path 277" d="M.5,7.264A8.025,8.025,0,0,1,3.844.75" transform="translate(-0.5 -0.75)" fill="none" stroke="#0e4290" stroke-linecap="round" stroke-linejoin="round" stroke-width="2"/>
      <path id="Path_278" data-name="Path 278" d="M14.344,7.264A8.025,8.025,0,0,0,11,.75" transform="translate(3.044 -0.75)" fill="none" stroke="#0e4290" stroke-linecap="round" stroke-linejoin="round" stroke-width="2"/>
    </g>
    <circle id="Ellipse_94" data-name="Ellipse 94" cx="9.166" cy="9.166" r="9.166" transform="translate(249.328 61.824)" fill="#f69307"/>
    <text id="_2" data-name="2" transform="translate(254.969 74.824)" fill="#fff" font-size="12" font-family="Poppins-Medium, Poppins" font-weight="500"><tspan x="0" y="0">2</tspan></text>
  </g>
</svg>
