<svg id="Group_60" data-name="Group 60" xmlns="http://www.w3.org/2000/svg" xmlns:xlink="http://www.w3.org/1999/xlink" width="75.848" height="75.849" viewBox="0 0 75.848 75.849">
  <defs>
    <clipPath id="clip-path">
      <path id="Path_385" data-name="Path 385" d="M358.224,66.306A37.924,37.924,0,1,1,320.3,28.381,37.924,37.924,0,0,1,358.224,66.306Z" transform="translate(-282.376 -28.381)" fill="#839334"/>
    </clipPath>
  </defs>
  <g id="Group_52" data-name="Group 52" transform="translate(0 0)">
    <path id="Path_375" data-name="Path 375" d="M358.224,66.306A37.924,37.924,0,1,1,320.3,28.381,37.924,37.924,0,0,1,358.224,66.306Z" transform="translate(-282.376 -28.381)" fill="#839334"/>
    <g id="Group_51" data-name="Group 51" clip-path="url(#clip-path)">
      <g id="Group_50" data-name="Group 50" transform="translate(12.177 4.966)">
        <path id="Path_376" data-name="Path 376" d="M355.47,64.959c-2.016.672.235,8.684,2.553,5.467.152,1.184-.422,2.417-1.734,2.355-.316,1.353,1.686,1.1,1.726,2.681.04,1.565-1.426,1.425-1.431,2.863a2.025,2.025,0,0,0,2.7,1.79c1.478-.524,1.591-1.8,1.91-2.926a3.987,3.987,0,0,1,.179,3.973c.933.115,1.416-.724,1.448-1.551a2.6,2.6,0,0,1-.175,2.666c.36-.079.862.11,1.229.051.236,1.389-.944,2.945-2.04,3.756-1.185.875-3.559.681-1.6,2.306,1.444,1.2,2.662.51,2.71,2.825.034,1.658-.757,3.207-2.518,3.155a.537.537,0,0,0-.119-.279,3.934,3.934,0,0,1-.4,5.183c.268-.867.408-2.1-.435-2.632.116.669.023,1.362-.641,1.6.27,3.111-5.577,3.272-7.664,3.473-1.587.152-3.048.806-4.615.962a30.954,30.954,0,0,1-4.59-.192c-.143-6.437-3.573-12.267-5.876-18.161-1.039-2.662.493-4.256,2.388-6.327,2.726-2.981,5.7-5.566,8.078-8.744Z" transform="translate(-313.504 -46.333)" fill="#200e11"/>
        <path id="Path_377" data-name="Path 377" d="M310.11,64.959c2.014.672-.235,8.684-2.553,5.467-.151,1.184.42,2.417,1.733,2.355.317,1.353-1.685,1.1-1.725,2.681-.041,1.565,1.426,1.425,1.431,2.863a2.026,2.026,0,0,1-2.705,1.79c-1.478-.524-1.591-1.8-1.91-2.926a3.99,3.99,0,0,0-.178,3.973c-.933.115-1.415-.724-1.449-1.551a2.607,2.607,0,0,0,.175,2.666c-.359-.079-.86.11-1.228.051-.235,1.389.945,2.945,2.041,3.756,1.186.875,3.56.681,1.6,2.306-1.443,1.2-2.662.51-2.71,2.825-.034,1.658.758,3.207,2.519,3.155a.536.536,0,0,1,.119-.279,3.934,3.934,0,0,0,.4,5.183c-.268-.867-.409-2.1.434-2.632-.114.669-.023,1.362.642,1.6-.27,3.111,5.578,3.272,7.664,3.473,1.587.152,3.049.806,4.616.962a30.937,30.937,0,0,0,4.589-.192c.144-6.437,3.574-12.267,5.876-18.161,1.04-2.662-.493-4.256-2.386-6.327-2.728-2.981-5.7-5.566-8.08-8.744Z" transform="translate(-301.403 -46.333)" fill="#200e11"/>
        <path id="Path_378" data-name="Path 378" d="M347.574,116.331c-2.383-2.971-21.247-9.5-21.247-9.5s-18.47,7.215-21.248,9.5-3.823,16.689-3.823,16.689H350.85S349.957,119.3,347.574,116.331Z" transform="translate(-301.256 -61.2)" fill="#cd3d4d"/>
        <path id="Path_379" data-name="Path 379" d="M342.708,107.334s-.722,3.5-5.843,3.5-5.841-3.5-5.841-3.5a7.777,7.777,0,0,0,0-6.154c-1.425-3.322,13.426-4,11.684,0S342.708,107.334,342.708,107.334Z" transform="translate(-311.79 -58.216)" fill="#d28b5d"/>
        <path id="Path_380" data-name="Path 380" d="M343.25,72.072c.371-4.985,3.534-12.172,3.534-12.172,4.5-10.063-2.722-24.766-8.89-20.571-6.606-8.81-28.778,1.055-22.1,20.434,0,0,2.742,6.681,3.007,11.613s9.127,9.67,11.974,9.829S342.879,77.058,343.25,72.072Z" transform="translate(-305.978 -36.08)" fill="#200e11"/>
        <path id="Path_381" data-name="Path 381" d="M362.753,75.473c0,2.636-1.868,6.259-3.129,6.259s-2.281-2.137-2.281-4.774a5.663,5.663,0,0,1,2.281-4.773C360.845,71.23,362.753,72.184,362.753,75.473Z" transform="translate(-321.168 -48.773)" fill="#fba573"/>
        <path id="Path_382" data-name="Path 382" d="M315.108,75.473c0,2.636,1.87,6.259,3.129,6.259s2.28-2.137,2.28-4.774a5.66,5.66,0,0,0-2.28-4.773C317.017,71.23,315.108,72.184,315.108,75.473Z" transform="translate(-306.174 -48.773)" fill="#fba573"/>
        <path id="Path_383" data-name="Path 383" d="M333.47,45.074c-8.855,0-12.771,6.2-12.771,15.461v11.59c0,8.062,9.315,14.958,12.258,14.958s13.287-8.063,13.287-15.7V60.535C346.244,51.279,342.328,45.074,333.47,45.074Z" transform="translate(-308.159 -39.273)" fill="#fba573"/>
        <path id="Path_384" data-name="Path 384" d="M345.709,66.507l.372-4.808c1.93-9.357-4.207-18.41-13.063-18.41S317.3,53.166,319.665,62.523l.5,5.468a6.563,6.563,0,0,0,2-4.031c.393-3.448,2.9-6.819,7.744-7.744,7.638-1.459,9.784-6.04,9.784-6.04a36.912,36.912,0,0,1,3.211,6.04c1.033,2.413,0,3.891.893,6.3A20.842,20.842,0,0,0,345.709,66.507Z" transform="translate(-307.624 -38.64)" fill="#200e11"/>
      </g>
    </g>
  </g>
</svg>
