<svg xmlns="http://www.w3.org/2000/svg" width="17.896" height="20.879" viewBox="0 0 17.896 20.879">
  <path id="Icon_metro-file-pdf" data-name="Icon metro-file-pdf" d="M19.675,6.631a2.711,2.711,0,0,1,.559.885,2.689,2.689,0,0,1,.233,1.025V21.964a1.114,1.114,0,0,1-1.119,1.119H3.689a1.114,1.114,0,0,1-1.119-1.119V3.322A1.114,1.114,0,0,1,3.689,2.2H14.129a2.69,2.69,0,0,1,1.025.233A2.711,2.711,0,0,1,16.04,3ZM14.5,3.788V8.169h4.381a1.273,1.273,0,0,0-.256-.478L14.979,4.044a1.273,1.273,0,0,0-.478-.256Zm4.474,17.8V9.66H14.129A1.114,1.114,0,0,1,13.01,8.542V3.695H4.062v17.9H18.976Zm-5.989-6.909a8.865,8.865,0,0,0,.979.652,11.562,11.562,0,0,1,1.363-.082q1.713,0,2.062.571a.563.563,0,0,1,.023.606.034.034,0,0,1-.012.023l-.023.023v.012q-.07.443-.827.443a4.806,4.806,0,0,1-1.34-.233A8.5,8.5,0,0,1,13.7,16.08a20.98,20.98,0,0,0-4.567.967Q7.348,20.1,6.311,20.1a.678.678,0,0,1-.326-.082l-.28-.14q-.012-.012-.07-.058a.481.481,0,0,1-.07-.419,2.53,2.53,0,0,1,.652-1.066A5.631,5.631,0,0,1,7.756,17.21a.17.17,0,0,1,.268.07.067.067,0,0,1,.023.047q.606-.99,1.247-2.3a17.783,17.783,0,0,0,1.212-3.053,9.418,9.418,0,0,1-.355-1.858,4.53,4.53,0,0,1,.076-1.486q.128-.466.489-.466h.256a.491.491,0,0,1,.408.175.931.931,0,0,1,.1.792.253.253,0,0,1-.047.093.3.3,0,0,1,.012.093v.35a15.257,15.257,0,0,1-.163,2.237,5.9,5.9,0,0,0,1.7,2.773ZM6.276,19.471a5.145,5.145,0,0,0,1.6-1.841,6.642,6.642,0,0,0-1.019.979A3.873,3.873,0,0,0,6.276,19.471ZM10.913,8.751a3.464,3.464,0,0,0-.023,1.538q.012-.082.082-.513,0-.035.082-.5a.262.262,0,0,1,.047-.093.034.034,0,0,1-.012-.023.024.024,0,0,0-.006-.017.024.024,0,0,1-.006-.017.671.671,0,0,0-.151-.419.034.034,0,0,1-.012.023v.023Zm-1.445,7.7a17.09,17.09,0,0,1,3.309-.944,1.757,1.757,0,0,1-.151-.111,2.087,2.087,0,0,1-.186-.157,6.172,6.172,0,0,1-1.48-2.051,15.57,15.57,0,0,1-.967,2.3q-.35.652-.524.967Zm7.527-.186a2.788,2.788,0,0,0-1.631-.28,4.407,4.407,0,0,0,1.445.326,1.13,1.13,0,0,0,.21-.012q0-.012-.023-.035Z" transform="translate(-2.571 -2.203)" fill="red"/>
</svg>
