<svg xmlns="http://www.w3.org/2000/svg" width="21.035" height="22.805" viewBox="0 0 21.035 22.805">
  <path id="Icon_ionic-ios-thumbs-up" data-name="Icon ionic-ios-thumbs-up" d="M24.634,22.055a2.225,2.225,0,0,0,.915-1.721,2.406,2.406,0,0,0-.6-1.595c-.033-.066-.06-.126-.088-.186l-.011-.06a.715.715,0,0,1,.11-.548,2.4,2.4,0,0,0,.318-1.409,1.665,1.665,0,0,0-.532-1.272,1.045,1.045,0,0,1-.225-1,2.114,2.114,0,0,0-.449-2.072c-.575-.647-1.113-.723-2.543-.641-.987.06-3.042.378-4.4.592-.554.088-1.036.164-1.184.175-.7.071-.833,0-.9-.269a1.777,1.777,0,0,1,.269-.712,11.753,11.753,0,0,0,.795-1.962,6.885,6.885,0,0,0-.148-4.944,1.791,1.791,0,0,0-1.441-1.047A2.18,2.18,0,0,0,13,3.815c-.186.219-.126.636-.34,1.469A15.98,15.98,0,0,1,12,7.586,15.752,15.752,0,0,1,8.877,10.9c-.225.2-.417.367-.554.5a11.3,11.3,0,0,0-1.4,1.792A9.54,9.54,0,0,1,6.175,14.2a1.98,1.98,0,0,1-1.222.6.44.44,0,0,0-.438.438v8.742a.454.454,0,0,0,.455.455,8.637,8.637,0,0,1,3.639.647,9.472,9.472,0,0,0,2.543.663,52.643,52.643,0,0,0,6.171.444,27.313,27.313,0,0,0,3.1-.214c1.7-.2,3.519-.592,4.121-2.028a1.548,1.548,0,0,0-.027-1.3.431.431,0,0,1-.044-.142A.464.464,0,0,1,24.634,22.055Z" transform="translate(-4.514 -3.382)" fill="#fff"/>
</svg>
