<svg xmlns="http://www.w3.org/2000/svg" width="44.391" height="44.5" viewBox="0 0 44.391 44.5">
  <g id="Rotary_International_logo_Orange" data-name="Rotary International logo Orange" transform="translate(0.5 0.5)">
    <path id="Union_13" data-name="Union 13" d="M21.446,43.5l-.035-.065-.041-.084-.044-.089-.039-.086-.04-.087L21.21,43l-.034-.091-.036-.092-.031-.093-.035-.1-.03-.1-.03-.1-.028-.1-.026-.1-.025-.1-.022-.107-.025-.108-.02-.111-.019-.109-.019-.114-.019-.116-.015-.121-.013-.121-.013-.122-.014-.125-.009-.13-.008-.13-.008-.132-.006-.138-.014-.478-.444-.032-.108-.006-.107-.008-.108-.011-.107-.011-.105-.011-.108-.01-.105-.011-.105-.014-.108-.013-.107-.014-.105-.014-.105-.015-.105-.014-.105-.017-.43-.07-.121.43-.033.106-.031.107-.033.1-.033.1-.039.106-.036.1-.039.1-.036.1-.042.1-.042.1-.046.1-.042.1-.048.1-.047.1-.047.1-.051.1-.055.1-.053.094-.055.095-.058.092-.056.092-.061.091-.065.09-.064.091-.065.087-.069.087-.072.089-.072.087-.072.086-.008.005-.053-.013-.09-.025-.091-.025-.09-.024-.088-.024-.091-.024-.091-.024-.09-.024-.091-.027-.089-.024-.088-.025-.063-.016-.017-.068-.019-.094-.017-.1-.017-.092-.015-.1-.014-.092-.011-.1-.009-.1-.008-.1-.006-.1,0-.1,0-.1,0-.1v-.1l0-.106,0-.108.006-.108.006-.111.008-.112.013-.112.011-.116.015-.121.019-.116.017-.124.02-.122.023-.125.024-.128.027-.13.028-.132.107-.461-.411-.147-.1-.036-.1-.035-.094-.036-.1-.035-.1-.038-.094-.04-.1-.038-.1-.04-.094-.038-.094-.04-.094-.041-.094-.041-.094-.041-.091-.044-.4-.179-.228.385-.056.094-.058.092-.06.095-.06.089-.061.093-.061.09-.064.089-.066.087L13,39.412l-.066.084-.069.086-.067.084-.069.084-.071.079-.076.081-.072.079-.077.079-.076.076-.077.076-.077.073-.083.076-.082.07-.085.073-.083.068-.088.07-.088.067-.088.066-.094.063-.091.064-.008,0-.049-.029-.082-.046-.078-.047-.083-.047-.081-.048-.079-.046-.08-.046-.083-.051-.08-.045-.079-.047-.083-.048-.053-.031,0-.073,0-.094,0-.1.008-.1.011-.1.012-.1.014-.094.014-.1.017-.1.017-.1.024-.1.022-.1.025-.1.029-.1.028-.1.032-.1.033-.1.036-.107.039-.106.038-.106.046-.111L11,38.2l.049-.111.051-.114.052-.114.053-.116.056-.117.06-.119.063-.122.22-.417-.355-.249-.081-.061-.083-.057L11,36.54l-.081-.061-.082-.059-.08-.063-.083-.062-.08-.061-.08-.061-.079-.064-.081-.065-.08-.064-.078-.063-.077-.065-.337-.279-.317.315-.083.076-.081.076-.083.076-.08.071-.083.073-.085.071-.085.073-.086.07-.085.066-.086.068-.088.065-.088.064-.092.063-.089.06-.093.061-.089.057-.1.057-.092.056-.1.052-.1.052-.1.049-.1.051-.1.048-.1.046-.1.044-.1.041L7,37.517l-.105.038-.108.036-.011,0-.3-.307L6.4,37.223l-.066-.068-.308-.31.024-.073.026-.091.033-.093.031-.091.036-.088.035-.092.039-.089.039-.09.042-.092.046-.09.046-.092.048-.091.052-.092.053-.092.054-.09.06-.094.058-.093.063-.092.065-.093.069-.1.069-.1.076-.1.076-.1.077-.1.08-.1.083-.1.09-.1.088-.1.093-.1L8,33.8l-.278-.331-.063-.077L7.6,33.318l-.061-.076-.06-.079-.061-.075-.061-.077-.06-.078-.06-.076-.061-.079-.06-.081-.058-.074L7,32.541l-.056-.079-.056-.079-.253-.355-.386.222-.1.054-.094.052-.1.051-.1.051-.1.047-.1.047-.1.046-.1.046-.1.041-.1.043-.1.041-.1.037-.1.036-.105.036-.1.033-.105.031-.105.031L4.428,33l-.105.025-.105.025-.11.022L4,33.1l-.107.02-.112.017-.108.014-.11.015-.113.013-.113.008-.113.008-.011,0-.027-.049-.049-.081-.047-.082L3.048,32.9,3,32.82l-.047-.082-.044-.079-.049-.081-.047-.084-.047-.081-.044-.081-.033-.056.041-.065.05-.081.052-.079.055-.079.056-.079L3,31.817l.06-.078.063-.076.066-.076.063-.079.068-.074.072-.075.072-.073.074-.076.077-.073.08-.074.081-.075.083-.073.088-.076.088-.071.093-.076.1-.07.1-.075.1-.073.1-.075.107-.073.11-.074.11-.073.115-.073.4-.249-.182-.4-.041-.087L5.1,29.286,5.061,29.2l-.041-.089-.038-.092-.039-.09L4.9,28.836l-.036-.094-.039-.09-.036-.092-.038-.093-.035-.089-.035-.092-.036-.092L4.5,27.786l-.432.111-.105.025-.11.025-.108.024-.105.022-.11.022-.107.019-.107.019-.108.015-.108.016-.108.014-.107.013-.108.01-.108.008-.108,0-.107.006-.11.006-.11,0-.105,0H2.013L1.9,28.14,1.8,28.133l-.112,0-.11-.01-.107-.011-.112-.015-.11-.015-.11-.018-.112-.02-.113-.022H.9L.631,26.991l.055-.052.071-.063.071-.063L.9,26.75l.076-.062.076-.06.078-.059.08-.057.08-.057.083-.056.085-.054.088-.057.086-.052.091-.051.094-.054.1-.051.1-.051.1-.047.1-.048.107-.051.105-.045.112-.047.113-.044.117-.045.116-.045L3,25.616l.122-.043.129-.043.129-.041.453-.135-.074-.417-.017-.089-.014-.087-.015-.091L3.7,24.586,3.687,24.5l-.016-.088-.011-.087-.012-.091-.01-.088-.014-.089-.011-.089L3.6,23.876l-.011-.09-.01-.089-.046-.422-.441,0-.11,0-.114,0-.108-.006-.11-.006-.11-.01-.11-.006-.107-.011-.112-.011L2.109,23.2,2,23.182l-.11-.015-.108-.019-.105-.019-.108-.022-.1-.024L1.36,23.06l-.107-.027L1.148,23l-.105-.029-.105-.035-.1-.031-.107-.038-.1-.036L.523,22.8l-.1-.043-.1-.044-.1-.046-.1-.048-.1-.051L0,22.559V21.5l.066-.035.083-.045.086-.041.085-.041L.41,21.3.5,21.258l.087-.035.093-.035.091-.035.1-.032.1-.031.1-.03.1-.027.1-.028.1-.024.105-.025.106-.024.11-.019.11-.02.113-.019.116-.017.119-.016.119-.015.121-.012L2.5,20.8l.127-.009.132-.01.13-.008.138-.005.473-.016.031-.436.008-.1.008-.1.011-.1.011-.1.01-.1.01-.1.011-.1.012-.1.011-.1.014-.1.012-.1.014-.1.014-.1.017-.1.065-.427-.426-.122-.1-.031-.107-.033-.105-.035-.1-.033-.105-.036-.1-.038-.1-.038-.1-.04-.1-.043-.1-.041-.1-.044-.1-.046-.1-.046-.094-.051-.1-.047-.092-.051-.1-.054-.092-.056-.094-.057-.093-.056-.089-.062-.091-.062-.09-.061-.086-.065L.915,17.2l-.086-.068-.085-.071-.088-.073-.085-.074,0-.006.013-.054.025-.09.025-.092.022-.091.024-.092L.7,16.4l.024-.091.025-.092.024-.092L.8,16.034l.026-.09.014-.062.071-.016L1,15.845l.092-.019.091-.016.1-.016.094-.013.1-.011.094-.011.1-.008.1-.008.1-.005.1,0,.1,0h.1l.106,0,.107,0,.107.006.11.008.11.01.113.011.115.013.119.016.117.016.12.017.121.022.124.022.127.025.127.027.131.029.457.108.146-.411.035-.093.031-.094.036-.092.033-.092.038-.093.033-.092.036-.092.04-.092.036-.092.038-.092.038-.09.037-.092.041-.091.039-.089.179-.4-.391-.229-.1-.06-.1-.059-.1-.061L4.431,13.5l-.094-.062-.093-.063-.091-.065-.093-.068-.091-.068-.09-.066-.086-.07-.086-.073-.086-.073-.085-.073-.083-.075-.08-.076-.083-.078-.078-.079-.08-.081-.077-.082-.074-.084-.074-.087-.075-.086L2.761,12l-.071-.091-.069-.092-.069-.093-.065-.1-.066-.1-.01-.016.028-.049.046-.081.049-.081.046-.081.046-.084.047-.079.049-.082.044-.082.047-.081.047-.081.049-.082.03-.056.08,0,.1,0,.1.006.1.01.1.011.1.012.1.015.1.015.1.018.1.02.1.024.1.022.1.029.1.028.107.032.1.033.108.036.107.038.11.041.11.043.113.045.112.049.115.049.117.052.116.057.121.059.119.06.121.065.124.065.424.233.248-.368.061-.087.061-.089.061-.086.061-.087.063-.087.063-.086.066-.086.063-.086.066-.084.064-.084.064-.084.068-.084.066-.082.066-.082.28-.344-.311-.322-.078-.082-.076-.082L7.312,9.3l-.071-.082-.072-.084L7.1,9.052l-.072-.084-.067-.089L6.89,8.8l-.063-.089-.064-.089L6.7,8.527l-.06-.091-.06-.09-.06-.092L6.46,8.161,6.4,8.066l-.055-.1-.05-.1-.052-.1-.052-.1-.049-.1-.047-.1-.044-.1-.046-.1-.041-.1-.039-.108-.039-.1-.036-.109-.005-.01.369-.374L6.285,6.4l.308-.309.072.02.089.03.093.032.088.032.091.035.09.036.088.04.091.04.09.043.088.045.092.047.09.048.089.052.091.054.092.056.094.059.09.061.093.064.092.065.094.068.094.071.094.073.1.076.094.079.1.081.1.086.1.086.1.092.1.093.342.328.328-.28.076-.064.074-.063.077-.062.077-.061.076-.064.075-.059.076-.061.077-.059.078-.062.08-.059.077-.06.079-.059.077-.059.08-.057.35-.254L11.145,6.3l-.053-.1-.05-.1-.054-.1-.049-.1-.047-.1-.049-.1-.046-.1-.042-.1-.044-.1-.041-.1-.04-.1-.039-.1-.035-.1-.036-.1-.031-.1-.033-.1-.03-.1-.03-.108-.024-.106-.027-.108-.024-.108-.019-.107-.02-.111-.019-.109-.013-.113-.014-.111-.014-.113-.008-.112-.01-.116V3.243l.049-.029.082-.047.08-.048.082-.044.08-.048.08-.047.08-.048.083-.046.08-.047.08-.046.08-.047.055-.032.063.038.08.052.08.054.078.055.075.056.079.061.077.06.076.062.075.066.077.065.076.068.072.071.076.073.072.076.074.077.075.079.072.082.072.086.075.087.071.089.072.093.074.1.072.1.074.1.072.1.072.107.072.109.072.112.074.117.248.406.391-.187.086-.04.088-.041.09-.041.088-.041.092-.038.088-.04.088-.038.092-.04.088-.038.093-.036.091-.036.09-.036.091-.036.091-.035.4-.154-.11-.436-.027-.108-.022-.109-.027-.108-.022-.108L15.34,3.56l-.02-.109L15.3,3.341l-.016-.108-.015-.109-.014-.108-.011-.109-.011-.11-.009-.111-.005-.108-.006-.109,0-.11V2.032l0-.111,0-.109.006-.111.01-.111.011-.111.014-.11.017-.112.014-.111.02-.111.025-.112V.911L15.4.9l.09-.025.088-.022.091-.025L15.752.8l.091-.024.093-.024.088-.025L16.113.7,16.2.677l.089-.022.061-.019.052.056.062.071.061.071.063.075.061.075.06.077.056.079.058.078.055.082.056.084.053.086.057.089.05.089.052.092.052.094.05.1.052.1.047.1.049.1.047.107.047.107.044.113.046.112.046.116.041.121.044.122.042.123.041.128.042.13.133.456.424-.076.1-.017.093-.016.1-.016.1-.015.1-.015.094-.014.1-.014.1-.013.1-.013.1-.013.1-.013.1-.01.1-.011.1-.01.43-.043.008-.45V3l.005-.112,0-.109.008-.111.008-.111.008-.11.011-.109.014-.109.011-.109.014-.108.017-.109.02-.107.017-.109.022-.106.022-.106.025-.108.027-.106.03-.107.029-.106.033-.1.033-.107.036-.1.036-.1.039-.1.044-.1.041-.1.046-.1.048-.1.049-.1L20.894,0h1.052l.033.065.046.086.041.086.04.089.041.086.036.09.037.094.033.09.036.1.031.1.031.1.028.1.03.1.024.1.028.1.023.1.02.108.022.111.022.113.015.112.017.119.017.119.014.121.011.125.013.127.01.128.011.132.006.135.006.137.013.477.43.036.1.008.1.01.1.011.1.009.1.011.1.011.1.013.094.011.1.013.1.016.1.014.1.015.1.013.093.017.427.071.119-.432.03-.106.033-.108.035-.106.033-.107.036-.1.04-.1.036-.1.042-.1.04-.1.042-.1.046-.1.042-.1.047-.1.049-.1.051-.1.05-.1.053-.1.053-.1.055-.093.06-.094.06-.093.061-.092.064-.091.063-.09L26.2.927l.069-.091L26.34.751,26.41.664l.076-.086.008-.01.053.014.09.025.093.024.088.025.089.024L27,.707l.09.022.09.027.091.022.09.025.091.024.06.019.02.071.017.094.019.095.017.094.014.1.013.1.011.1.013.1.008.1.006.1.006.1,0,.1,0,.1,0,.107,0,.108,0,.109-.006.109-.008.112-.011.114-.011.114L27.6,2.99l-.014.119-.017.122-.02.122-.019.127-.024.127-.028.128-.025.133L27.419,4l-.107.464.405.146.091.035.092.033.09.036.091.036.093.036.088.036.091.037.09.036.091.04.092.04.088.036.089.041.09.04.088.04.392.183.228-.388.06-.1.058-.094.058-.095.061-.094.061-.09.063-.092.063-.089.066-.089.064-.089.066-.087.069-.084.069-.086.071-.084.072-.082.074-.081.072-.08.079-.079.075-.076.077-.077.08-.076.083-.073.081-.073.083-.071.086-.071.089-.068.086-.068.091-.067.093-.065.094-.063.009-.006.049.029.08.048.083.046.078.048.08.047.082.046.081.048.079.047.081.048.08.046.083.046.053.034,0,.076,0,.1-.006.1-.008.1-.011.1-.011.1-.012.1-.017.1-.017.1-.019.1-.022.1-.024.1-.025.1-.03.1-.028.1-.031.1-.035.106-.038.108L32.286,5l-.041.107-.044.112-.044.111-.05.112-.05.116L32,5.669l-.053.117-.06.119-.06.121-.065.122-.226.42.355.247.08.056.077.061.079.057.08.057.08.059.076.059.077.06.079.061.077.058.078.062.076.06.075.061.076.065.076.06.333.279.32-.317.08-.077.082-.076.08-.074.081-.075.086-.073.083-.071.083-.071.086-.068.086-.068.086-.068.088-.065.089-.063.088-.062.093-.061.091-.06.091-.057.1-.057.091-.056.1-.054.094-.052.1-.051.1-.049.1-.048.1-.046.105-.041.1-.043.105-.041.107-.041.105-.035.011,0,.746.751-.023.073-.028.092-.031.091L36.949,7l-.035.092-.035.089-.039.092-.039.091-.044.09-.044.092-.046.091-.051.09-.05.092-.053.092L36.46,8l-.056.094-.06.093-.063.092-.065.1-.067.1-.071.1-.074.1-.077.1-.077.1-.08.1-.083.1-.09.1-.089.1-.093.1L35.09,9.7l.28.33.063.076.061.075.063.078.061.076.06.076.061.078.058.076.061.079.06.077.058.078.058.081.06.077.058.079.056.081.251.353.389-.222.1-.052.094-.054.1-.051.1-.051.1-.049.1-.046.1-.046.1-.045.1-.044.1-.04.1-.04.1-.04.1-.036.105-.035.1-.033.1-.032.105-.031.1-.029.108-.025.105-.025.107-.024.11-.02.107-.02.11-.019.112-.014.11-.013.11-.013.115-.01.112-.008h.013l.026.049.047.082.049.079.044.082.047.081.049.082.046.081.046.082L40.28,11l.05.081.044.081.033.057-.041.062-.049.082-.054.079-.055.079-.058.078-.058.079-.061.076-.061.076-.063.078-.067.076-.067.076-.071.073-.072.076-.072.075-.077.074-.08.075-.083.073-.081.075-.086.073-.091.073-.091.075-.1.071-.1.077-.1.071-.1.073-.105.075-.11.073-.112.073-.117.075-.4.25.185.392.039.09.041.089.041.089.039.091.041.09.038.092.037.09.041.091.035.09.038.092.036.092.038.091.033.093.037.092.151.407.433-.111.105-.025.108-.027.109-.024.105-.022.11-.02.108-.02.107-.018.108-.016L40,15.414,40.1,15.4l.11-.013.107-.01.108-.01.11-.008.108-.005.107,0h.325l.112,0,.108.005.11.008.11.01.108.014.11.013.112.016.112.017.108.019.113.022.01,0,.014.054.026.091.02.092.027.09.025.092.027.108.046.163.022.092.025.091.022.09.017.062-.053.052-.071.065-.072.062-.074.061-.074.062-.074.061-.079.057-.08.06-.082.056-.083.057-.083.054-.088.054-.088.054-.091.052-.094.052-.094.051-.1.049-.1.051-.1.047-.1.048-.108.047-.112.046-.113.046-.113.045-.119.041-.121.045-.124.043-.127.041-.131.043-.451.138.076.422.016.092.015.092.014.094.014.09.017.1.014.094.011.092.013.092.012.094.013.093.011.1.013.093.008.1.011.094.042.439.463-.01h.122l.119,0h.118l.121,0,.119.008.12.006.119.008.116.01.117.011.117.014.117.016.118.015.113.019.116.02.114.024.117.024.115.027.113.029.115.03.114.033.11.035.112.036.115.041.113.041.108.045.112.046.113.049.107.052.11.051.027.015v1.063l-.08.043-.09.046-.091.044-.092.043-.094.041-.1.04-.094.038-.1.036-.1.035-.1.033-.1.033-.108.03-.107.029-.11.027-.11.025-.116.024-.116.022-.117.022-.121.019-.124.017-.127.016-.13.016-.131.012-.133.013-.14.008-.141.008-.143.006-.147,0-.149,0-.495.006-.033.43-.006.086-.008.089-.01.084-.01.091-.009.087-.01.086-.008.086-.01.087-.011.087-.013.087-.011.087-.012.084-.01.084-.014.089-.064.427L39.8,25l.121.033.119.032.119.033.117.035.118.035.116.04.117.038.115.041.116.041.113.044.112.046.113.046.11.049.108.051.11.054.108.054.105.059.108.057.1.058.1.062.105.065.1.066.1.071.1.07.1.073.1.076.1.078.1.079.1.084.025.025-.013.054-.025.09-.025.092-.022.09-.027.091-.024.092-.022.089-.027.092-.022.09-.025.092-.025.091-.017.06-.093.024-.1.022-.1.017-.1.019-.105.014-.1.015-.107.01-.105.011-.107.008-.112.005-.108,0h-.226l-.115,0-.116,0-.118-.01-.121-.01-.122-.01-.126-.014L40.49,27.7l-.13-.019-.13-.02-.134-.024-.138-.027-.135-.025-.141-.03-.146-.033-.147-.035-.147-.038-.487-.13-.146.422-.03.1-.036.093-.031.092-.036.094-.033.092-.036.092-.035.094-.038.092-.035.09-.041.091-.036.093-.038.091-.041.089-.036.093-.176.4.4.224.107.062.1.063.105.062.1.063.1.065.1.065.1.068.1.067.1.071.1.07.094.073.091.075.093.075.088.076.089.078.09.081.085.079.085.082.085.086.081.086.08.086.078.091.077.09.079.094.075.1.072.1.071.1.069.1.069.1.017.025-.028.048-.047.082-.047.082-.044.081-.049.082-.047.081-.044.082-.049.079-.046.082-.044.079-.048.084-.033.056-.091,0-.1-.008-.1,0-.1-.01-.1-.011-.1-.014-.1-.016-.105-.017-.1-.02-.105-.022-.105-.024-.1-.027-.11-.03-.108-.03-.107-.036-.112-.035-.112-.038-.112-.043-.116-.044-.115-.048-.117-.047-.118-.052-.121-.056-.121-.057-.124-.06-.126-.065-.128-.065-.127-.07-.132-.073-.432-.245-.242.361-.052.074-.052.076-.052.073-.05.075-.053.075-.054.073-.051.073-.054.073-.053.075-.053.071L35.9,32.8l-.055.073-.055.071-.053.07-.265.337.322.319.085.084.08.087.08.084.079.087.078.087.076.087.077.091.074.089.072.09.069.09.071.1.068.092.067.094.065.1.063.1.062.1.06.1.06.1.058.1.055.1.052.1.051.1.051.106.05.108.044.106.044.111.046.108.039.116.039.112.006.024-.368.373-.066.066-.308.312-.082-.025-.092-.03-.091-.032-.094-.035-.093-.036-.092-.038-.091-.041-.091-.043-.094-.043L35.96,36.9l-.092-.051-.093-.052-.092-.051-.093-.057-.094-.059-.094-.061-.1-.064-.1-.066-.094-.068-.1-.073-.1-.074-.1-.078-.1-.082-.1-.081-.1-.087-.1-.089-.1-.092-.105-.1-.1-.1-.355-.341-.33.29-.072.065-.076.065-.072.066-.077.063-.072.062-.077.065-.077.06-.076.064-.075.061-.077.061-.078.06-.077.062-.078.058-.077.061-.344.261.224.392.056.1.058.1.055.1.053.1.05.1.05.1.051.1.049.106.042.1.047.11.044.106.039.1.039.109.036.109.037.108.033.109.035.111.028.108.03.112.025.112.025.109.024.114.02.116.02.114.016.117.014.116.012.119.011.116.009.119v.022l-.047.03-.083.046-.08.046-.081.046-.079.049-.081.047-.08.045-.082.049-.08.047-.082.048-.078.046-.055.031-.069-.044-.083-.052-.08-.054-.08-.057-.079-.059-.078-.06-.079-.063-.077-.064-.077-.065-.077-.07-.075-.071-.076-.071-.077-.076-.075-.076-.076-.081-.074-.082-.076-.086-.075-.089-.074-.088-.074-.094-.074-.1-.075-.1-.074-.1-.072-.1-.077-.107-.072-.111-.075-.116-.076-.116-.075-.122-.251-.42-.4.2-.09.043-.092.044-.092.045-.091.043-.09.043-.091.041-.093.041-.092.043-.093.04-.092.041-.091.037-.094.041-.094.038-.094.04-.4.16.112.431.026.108.027.111.022.109.024.109.022.111.019.111.019.107.019.108.015.112.012.11.013.109.011.112.011.109.006.111.006.109,0,.111v.333l0,.111-.005.111-.006.111-.009.112-.014.111-.013.113-.014.112-.017.112-.022.112-.022.112,0,.014L28,42.527l-.088.025-.092.024-.091.024-.086.024-.092.027-.088.022-.091.025-.091.025-.088.022-.092.027-.06.015-.05-.054-.063-.071-.063-.07-.06-.075-.061-.073-.06-.079-.058-.078-.058-.079-.056-.082-.053-.082-.055-.086-.055-.087-.051-.089-.052-.09-.052-.094-.049-.1-.05-.1-.049-.1-.049-.1-.046-.107-.047-.106-.046-.111-.044-.114-.046-.114-.044-.119-.041-.122-.044-.124-.039-.125-.041-.132-.137-.459-.429.086-.094.017-.1.019-.1.015-.1.018-.1.017-.1.014-.1.016-.1.016-.1.014-.1.013-.1.016-.1.01-.1.014-.1.011-.424.049,0,.447,0,.111,0,.114,0,.109-.008.114-.008.111-.009.111-.01.111-.013.111-.011.109-.015.109-.017.109-.017.108-.019.109-.022.108-.023.106-.024.11-.028.106-.025.106-.033.109-.031.1-.033.106-.036.1-.039.1-.038.106-.042.1-.044.1-.044.1-.049.1-.052.1,0,.011H21.446ZM6.686,26.886a2.607,2.607,0,0,0-1.122.713.281.281,0,0,0-.052.264,17.258,17.258,0,0,0,16.035,11.19A17.239,17.239,0,0,0,37.628,27.737a.437.437,0,0,0-.037-.446,4.932,4.932,0,0,0-3.06-1.386c-.216,0-.342.052-.364.151a13.517,13.517,0,0,1-4.787,6.56,13.176,13.176,0,0,1-15.266.285,13.526,13.526,0,0,1-4.833-5.907c-.109-.3-.443-.46-.966-.46A4.7,4.7,0,0,0,6.686,26.886Zm17.419-.71-.08.006-.058.017-.049.025-.047.041-.046.06-.046.084-.041.112-.038.139-.034.167-.03.195-.02.168-.017.179-.022.188-.017.2-.019.206-.014.21-.016.219-.017.224-.013.228-.014.232-.01.236-.013.238-.012.238-.01.241-.01.239-.008.239-.006.238-.006.234-.005.231,0,.225,0,.227,0,.215,0,.211,0,.2v.561l0,.165,0,.157,0,.146.006.13,0,.111.006.049.009.036.013.032.02.03.025.025.027.025.037.022.038.024.046.019.051.015.055.014.055.01.053,0,.055,0,.052,0,.053,0,.195-.032.2-.041.211-.049.216-.06.225-.07.228-.077.232-.087.239-.1.235-.1.242-.108.24-.116L26.7,32.9l.244-.125.24-.133.239-.138.237-.139.233-.144.229-.149.226-.15.219-.154.212-.154.208-.158.2-.157.19-.158.182-.162.174-.157.162-.155.149-.158.138-.152.129-.151.113-.149.1-.144.051-.081.039-.074.033-.073.022-.065.014-.062.008-.056v-.051l-.006-.043-.01-.045-.019-.044-.028-.041-.033-.043-.049-.046-.06-.044-.074-.046-.086-.048-.165-.081-.167-.081-.165-.081-.165-.082-.168-.081-.163-.082-.167-.081L29,28.4l-.163-.079-.331-.163-.167-.084-.163-.082-.166-.079-.163-.083-.167-.084-.163-.081-.167-.079-.163-.081-.166-.082-.163-.081-.167-.081-.166-.081-.165-.081-.167-.079-.167-.081-.166-.079-.163-.079-.17-.078-.165-.079-.169-.078-.165-.077-.206-.092-.182-.075-.167-.057-.144-.041-.122-.022Zm-5.44-.141-.115.017-.14.035-.163.056-.182.071-.153.066-.163.071-.171.078-.179.084-.185.087-.188.092-.2.095-.2.1-.206.1-.206.107-.208.106-.208.109-.21.108-.212.114-.211.111-.205.112-.209.112-.2.111-.2.111-.2.109-.193.109-.188.107-.182.1-.176.1-.167.1-.163.094-.151.09-.141.084-.132.079-.122.076-.112.07-.091.06-.042.032-.024.024-.022.032-.015.03-.011.033-.005.036,0,.045,0,.046,0,.049.011.052.016.052.022.051.02.052.028.046.028.047.028.043.124.155.137.157.149.16.16.16.174.16.179.16.19.16.2.16.205.157.214.157.219.154.228.151.228.147.236.144.234.141.24.137.242.132.24.127.244.121.242.114L16.7,33l.237.1.239.095.229.087.229.079.22.073.215.062.21.054.2.046.193.035.182.027.173.015.094,0,.086,0,.077-.008.068-.013.061-.017.052-.024.041-.024.036-.027.031-.031.028-.038.02-.043.02-.054.017-.062.01-.076v-.189l-.015-.182L19.64,32.7l-.014-.182-.012-.185-.011-.186-.014-.187-.013-.188-.013-.182L19.55,31.4l-.022-.371-.013-.186-.014-.184-.013-.185-.011-.184-.012-.185-.015-.187-.011-.182-.014-.186-.012-.185-.011-.185L19.388,29l-.015-.183-.014-.187-.013-.184-.012-.186-.017-.187-.016-.183-.015-.185-.014-.186-.019-.185-.015-.184-.024-.225-.03-.2-.031-.174-.038-.144-.041-.119-.044-.089-.047-.067-.041-.046-.048-.027-.058-.02-.074-.01ZM9.289,9.67a17.429,17.429,0,0,0-4.371,16.29c.1.218.357.329.757.329a4.823,4.823,0,0,0,1.791-.453,2.338,2.338,0,0,0,1.151-.827.193.193,0,0,0-.049-.228,13.632,13.632,0,0,1-.341-3.032,13.214,13.214,0,0,1,1.017-5.1A13.478,13.478,0,0,1,10.438,14.4a13.645,13.645,0,0,1,1.583-1.97c.051-.09-.012-.3-.175-.58a7.008,7.008,0,0,0-1.14-1.408,2.354,2.354,0,0,0-1.323-.784A.516.516,0,0,0,9.289,9.67Zm7.79,12.091a4.463,4.463,0,1,0,4.462-4.5A4.489,4.489,0,0,0,17.079,21.761Zm15.469-4.178-.055.01-.064.019-.067.027-.076.04-.088.056-.149.1-.151.107-.154.1-.154.1-.151.1-.154.1-.154.1-.151.1-.156.1-.3.206-.154.1-.154.1-.151.1-.154.1-.153.1-.151.1-.154.1-.153.1-.151.1-.154.1-.153.1-.149.1-.154.106-.153.1-.149.1-.153.106-.152.106-.151.1-.149.108-.153.106-.147.108-.182.133L27,21.328l-.132.114-.107.106-.08.1-.056.084-.031.073-.017.06,0,.056.013.06.028.068.051.082.077.093.1.1.127.112.155.125.132.1.143.1.153.113.16.114.167.117.174.121.179.123.183.124.188.127.195.128.195.128.2.128.2.13.2.125.2.128.2.127.2.125.2.124.2.121.193.117.188.114.183.112.179.108.176.1.167.1.163.093.149.087.146.084.135.073.126.07.113.062.1.051.046.02.038.01.033,0h.035l.035-.01.038-.013.036-.017.039-.025.041-.03.036-.036.038-.04.035-.045.033-.044.028-.049.027-.046.02-.046.071-.186.066-.2.063-.209.058-.22.051-.231.047-.239.041-.245.039-.252.031-.26.026-.265.022-.268.017-.273.011-.276.009-.275V22l0-.277-.008-.276-.012-.276-.017-.271-.019-.269-.028-.264-.031-.259-.037-.252-.041-.246-.042-.241-.052-.228-.055-.222-.056-.209-.063-.2-.066-.185-.071-.174-.072-.158-.046-.084-.042-.074-.049-.062-.042-.054-.046-.045-.044-.033-.044-.025-.039-.017-.046-.011-.046-.005Zm-22.174-.158-.035,0-.031.006-.039.013-.038.019-.039.025-.039.03-.038.035-.038.04-.036.044-.031.046-.029.044-.025.048-.022.049-.071.185-.068.2-.061.211-.058.22-.052.229-.045.239-.044.246-.038.255-.03.257-.028.265-.022.269-.015.272-.011.275-.011.276V21.5l0,.276.008.276.012.274.016.273.023.268.027.264.03.259.036.255.041.246.044.238.05.23.057.22.056.211.061.2.069.184.069.176.074.157.044.084.044.074.046.065.047.052.042.041.044.035.044.025.042.019.042.011.044.005.05,0,.055-.01.061-.02.069-.029.079-.038.085-.056.149-.1.152-.1.154-.1.151-.1.154-.1.154-.1.151-.1.153-.1.155-.1.3-.208.156-.1.151-.1.152-.1.154-.1.151-.106.154-.1.152-.1.153-.1.152-.106.153-.1.151-.1.151-.106.154-.1.151-.1.151-.1.153-.106.151-.107.151-.107.154-.1.149-.109.149-.106.18-.133.157-.123.13-.114.107-.106.08-.1.056-.082L16.5,21.7l.017-.062v-.057l-.012-.058-.028-.068-.051-.082-.075-.1-.1-.1-.126-.114-.156-.122-.132-.1-.143-.106-.151-.111-.162-.112-.167-.121-.176-.119-.178-.123-.184-.124-.188-.127-.193-.128-.195-.128-.2-.128-.2-.129-.2-.13-.2-.127L13.1,19l-.2-.125-.2-.122-.2-.121-.193-.117L12.13,18.4l-.185-.112-.182-.106-.174-.1-.165-.1-.163-.1-.152-.087-.143-.081-.135-.076L10.7,17.57l-.116-.063-.1-.049-.046-.021-.038-.008ZM33.626,9.8a1.958,1.958,0,0,0-1.179.539,6.157,6.157,0,0,0-1,1.078,2.136,2.136,0,0,0-.462.86,13.536,13.536,0,0,1,2.838,4.266,13.421,13.421,0,0,1,1.042,5.207,13.605,13.605,0,0,1-.228,2.479.817.817,0,0,0,.265.581,2.8,2.8,0,0,0,1.139.606,4.98,4.98,0,0,0,1.373.212,1.234,1.234,0,0,0,.86-.215.232.232,0,0,0,.061-.183A17.371,17.371,0,0,0,34,9.878.892.892,0,0,0,33.626,9.8Zm-9.739.026-.077.008-.069.015-.06.017-.052.02-.041.024-.038.029-.028.032-.03.036-.022.046-.019.052-.016.064-.011.075,0,.087,0,.1.014.182.016.184.011.187.013.185.014.186.012.187.013.186.012.185.011.186.023.369.013.185.014.185.011.184.013.186.012.185.014.185.013.186.011.184.013.182.012.187.014.185.016.186.012.183.014.186.015.185.015.186.014.185.015.184.016.184.019.187.017.182.022.227.03.2.031.173.039.146.038.117.046.091.047.066.042.043.047.03.056.018.076.011.1,0,.117-.019.138-.035.162-.056.183-.071.153-.066.163-.071.17-.077.18-.084.185-.086.188-.09.2-.1.2-.1.2-.1.205-.107.208-.106.208-.108.211-.111.212-.113.21-.111.208-.114.207-.111.2-.111.2-.113.2-.109.193-.106.185-.106.183-.1.176-.1.167-.1.163-.093.149-.089.143-.086.132-.08.121-.076.112-.07.091-.06.041-.03.027-.027.019-.027.016-.03.011-.035.008-.04,0-.041,0-.046,0-.049-.011-.051-.016-.054-.022-.052L30.8,13.7l-.024-.047-.03-.044-.03-.045-.122-.154-.138-.158-.149-.16-.162-.16-.171-.16-.179-.16-.192-.16-.2-.16L29.2,12.13l-.214-.157-.221-.152-.223-.151-.229-.149-.234-.144-.236-.141L27.6,11.1l-.242-.132-.24-.127-.244-.12-.24-.116L26.4,10.5l-.24-.1-.235-.1-.231-.087-.228-.079-.223-.071L25.029,10l-.21-.054-.2-.043-.193-.035-.181-.027-.174-.016-.092,0Zm-4.729-.192-.051.006-.2.03-.2.04-.209.051-.217.062-.228.068-.226.079-.234.086-.234.093-.24.1-.24.109-.24.114-.242.122-.244.127-.24.132-.237.137-.237.139-.233.147-.231.147-.223.152-.222.152-.214.157-.2.157-.2.158-.193.158-.182.157-.173.16-.16.157-.151.155-.138.155-.129.149-.115.149-.1.142-.047.081-.042.076-.03.071-.026.068-.014.061L12.409,14v.049l.006.046.011.043.019.041.027.041.035.044.047.046.058.047.072.045.09.047.163.079.168.082.165.081.167.081.165.082.166.081.165.082.166.082.163.081.33.165.167.082.163.079.166.082.163.082.166.082.163.081.165.082L15.91,16l.167.081.167.081.163.081.165.081.166.079.167.081.165.081.168.078.165.081.168.078.165.078.168.079.166.076.206.093.184.073.166.059.142.041.124.02.1.008.08-.008.061-.016.047-.027.044-.038.047-.062.042-.084.044-.114.037-.138.035-.166.031-.2.017-.168.02-.179.02-.189.019-.195.016-.206.015-.211.016-.22.017-.222.012-.23.014-.231.011-.235.014-.238.01-.239.01-.241.008-.239.008-.238.008-.239.006-.233.005-.232,0-.228.006-.222,0-.217V11.41l0-.2v-.561l0-.168,0-.155,0-.143-.005-.132,0-.111-.006-.051-.01-.036-.014-.03-.018-.029-.025-.028L19.6,9.74l-.036-.025-.039-.02-.046-.019-.052-.015-.052-.013-.053-.008-.057-.006h-.108ZM10.652,8.405c-.131.168-.116.422.045.757a5.814,5.814,0,0,0,1.228,1.522,3.218,3.218,0,0,0,1.108.792.047.047,0,0,0,.048-.025,13.547,13.547,0,0,1,3.895-2.278A13.386,13.386,0,0,1,21.546,8.3a13.12,13.12,0,0,1,4.448.772,13.266,13.266,0,0,1,3.817,2.138.157.157,0,0,0,.147.08c.485,0,1.769-1.343,2.182-2.281.167-.379.18-.662.039-.82A16.84,16.84,0,0,0,21.546,4.444,17.053,17.053,0,0,0,10.652,8.405ZM20.4,38.664l.93-2.684.561-.02,1.139,2.61-.575.023L22.2,38l-1.049.036-.195.613-.561.019Zm.905-1.08.715-.026-.394-.971Zm-2.339.8-.713-1.9-.327,1.7-.483-.094.5-2.6.506.1.719,1.944.334-1.737.485.1-.5,2.6Zm4.845-2.158-.765.149-.084-.44,2.049-.4.084.44-.762.15.416,2.162-.523.1Zm-7.238,1.655-.587-.241-.142-.681a3.539,3.539,0,0,0-.114-.464.446.446,0,0,0-.107-.165.911.911,0,0,0-.237-.125l-.1-.043-.411,1.026-.493-.2.984-2.458,1.033.42a1.932,1.932,0,0,1,.54.3.594.594,0,0,1,.19.352.789.789,0,0,1-.049.429.717.717,0,0,1-.346.39.658.658,0,0,1-.3.067,1.1,1.1,0,0,1-.27-.037,1.191,1.191,0,0,1,.181.315,2.843,2.843,0,0,1,.121.512l.105.6Zm-1.129-2.111.364.147a1.958,1.958,0,0,0,.454.15h.017a.284.284,0,0,0,.162-.048.344.344,0,0,0,.122-.163.321.321,0,0,0,.016-.227.33.33,0,0,0-.148-.171,3.848,3.848,0,0,0-.355-.157l-.383-.155ZM25.5,35.384,26,35.2l.9,2.492-.5.181Zm2.562,1.582a1.35,1.35,0,0,1-.752-.726,1.694,1.694,0,0,1-.2-.66,1.353,1.353,0,0,1,.052-.437,1,1,0,0,1,.2-.366,1.419,1.419,0,0,1,.457-.353,1.381,1.381,0,0,1,.625-.165,1.093,1.093,0,0,1,.366.063,1.627,1.627,0,0,1,.908,1.794,1.228,1.228,0,0,1-.66.745,1.373,1.373,0,0,1-.628.167A1.1,1.1,0,0,1,28.061,36.967Zm-.036-2.138a.675.675,0,0,0-.367.444,1.018,1.018,0,0,0,.127.7,1,1,0,0,0,.492.514.669.669,0,0,0,.248.049.693.693,0,0,0,.32-.083.667.667,0,0,0,.362-.445,1.039,1.039,0,0,0-.13-.707,1.009,1.009,0,0,0-.483-.515.648.648,0,0,0-.235-.045A.735.735,0,0,0,28.025,34.828Zm-16.282.54,1.431-2.221,1.63,1.07-.243.374-1.185-.777-.319.492,1.106.724-.241.375-1.106-.727-.388.608,1.23.8-.242.375Zm17.63-1.749.4-.328,1.94.692-1.1-1.373.383-.314,1.652,2.059-.414.339-1.9-.67,1.076,1.342-.383.313Zm-19.356.28,1.515-1.584-.558-.548.308-.32,1.5,1.461-.308.324-.56-.546L10.4,34.272Zm23.322-.121-1.354-2.493.362-.432,2.685.889-.371.447-.6-.21-.675.811.317.553-.36.437Zm-.19-1.4.458-.555-.977-.351ZM8.471,32.213l.794-1.865-1.4.992-.281-.409,2.148-1.518.3.426-.82,1.9,1.435-1.012.282.406-2.15,1.52ZM33.31,29.667l.265-.463,1.872,1.089.658-1.15.383.221-.925,1.615ZM6.749,29.491l2.361-1.154.235.481L6.984,29.972ZM17.424,21.76a4.118,4.118,0,1,1,4.117,4.159A4.146,4.146,0,0,1,17.424,21.76Zm-3.436-11.75L12.675,7.716l.969-.564a1.909,1.909,0,0,1,.562-.246.662.662,0,0,1,.1-.009.609.609,0,0,1,.289.074.744.744,0,0,1,.3.306.721.721,0,0,1,.1.514.841.841,0,0,1-.33.474,1.183,1.183,0,0,1,.358.049,3.117,3.117,0,0,1,.473.22l.534.287-.546.317-.62-.3a3.289,3.289,0,0,0-.433-.2.42.42,0,0,0-.126-.021.314.314,0,0,0-.066.007.871.871,0,0,0-.248.107l-.091.054.546.957-.458.269h0Zm.066-2.571c-.04.017-.147.076-.339.187l-.358.211.333.58.341-.2a2.129,2.129,0,0,0,.4-.269.292.292,0,0,0,.074-.171.352.352,0,0,0-.053-.2.312.312,0,0,0-.17-.151.279.279,0,0,0-.092-.015A.387.387,0,0,0,14.055,7.44Zm14.06,1.967.552-.966-.074-1.814.538.313.017,1.219,1.042-.6.529.305-1.6.847-.55.963Zm-1-.59-.6-.2-.188-.667a3.436,3.436,0,0,0-.146-.458.449.449,0,0,0-.116-.155.971.971,0,0,0-.245-.109l-.1-.033-.339,1.051-.5-.165.812-2.519,1.06.346a1.966,1.966,0,0,1,.559.259.617.617,0,0,1,.214.336.782.782,0,0,1-.02.432.714.714,0,0,1-.314.415.73.73,0,0,1-.366.088,1.168,1.168,0,0,1-.2-.019,1.237,1.237,0,0,1,.2.3,2.681,2.681,0,0,1,.156.5l.147.591h0ZM25.844,6.795l.372.121a2.053,2.053,0,0,0,.463.119.3.3,0,0,0,.178-.062.339.339,0,0,0,.11-.171.311.311,0,0,0,0-.227.329.329,0,0,0-.157-.162c-.045-.021-.178-.068-.366-.128l-.394-.13ZM16.749,8.229a1.16,1.16,0,0,1-.36-.347A1.927,1.927,0,0,1,16.1,6.671a1.275,1.275,0,0,1,.144-.413,1.052,1.052,0,0,1,.265-.319,1.4,1.4,0,0,1,.519-.249,1.528,1.528,0,0,1,.4-.056,1.136,1.136,0,0,1,.594.164,1.414,1.414,0,0,1,.595.886,1.42,1.42,0,0,1-.077,1.058,1.239,1.239,0,0,1-.8.591,1.531,1.531,0,0,1-.4.056A1.136,1.136,0,0,1,16.749,8.229Zm.405-2.1a.689.689,0,0,0-.453.356,1.027,1.027,0,0,0-.017.713.986.986,0,0,0,.375.605.655.655,0,0,0,.369.116.782.782,0,0,0,.2-.027.668.668,0,0,0,.441-.36,1.03,1.03,0,0,0,.02-.72,1,1,0,0,0-.367-.6.629.629,0,0,0-.356-.109A.832.832,0,0,0,17.154,6.129Zm6.561,1.718-.187-.615-1.047-.072-.258.583L21.662,7.7l1.2-2.571.559.038.864,2.717h0ZM22.674,6.723l.716.051L23.1,5.768ZM20.092,5.6l-.776.054L19.285,5.2l2.081-.147L21.4,5.5l-.776.054.153,2.195-.529.037Z" fill="#f69307" stroke="rgba(0,0,0,0)" stroke-width="1"/>
  </g>
</svg>
